<?xml version="1.0" encoding="UTF-8" standalone="no"?>
<svg viewBox="0 0 1618.921 176.68101" version="1.1" width="300" xmlns="http://www.w3.org/2000/svg">
  <defs id="defs1">
    <style id="style1">.fill-color-1{fill:#6161d6;}.fill-color-2{fill:#24275e;fill-rule:evenodd;}</style>
  </defs>
  <path
     class="fill-color-1"
     d="m 202.77,135.4312 a 56.89,56.89 0 0 0 17.83,-16.53 h 8.2 a 7.55,7.55 0 1 0 0,-15.1 h -0.65 a 57.53,57.53 0 0 0 2.86,-14.999994 h 8.07 a 7.55,7.55 0 1 0 0,-15.1 h -8.33 a 57.34,57.34 0 0 0 -3.64,-15 h 1.56 a 7.55,7.55 0 1 0 0,-15.09 h -10.15 a 58,58 0 0 0 -45.16,-21.74 h -12.89 a 56.35,56.35 0 0 0 -22.9,4.82 h 13.53 a 56.9,56.9 0 0 1 7.15,113.419994 c -1.69,0.13 -3.38,0.26 -5.2,0.26 H 94.490003 a 69.85,69.85 0 0 0 23.819997,-21.47 4.42,4.42 0 0 0 1.3,0.13 h 51 a 7.55,7.55 0 0 0 0,-15.1 h -44.36 a 72.32,72.32 0 0 0 3.9,-14.999994 h 58.44 a 7.55,7.55 0 0 0 0,-15.1 H 130.8 a 70.93,70.93 0 0 0 -2.86,-15 h 42.95 a 7.55,7.55 0 0 0 0,-15.09 H 121.3 a 69.7,69.7 0 0 0 -59.87,-34.23 h -4.94 a 69.69,69.69 0 0 0 -56.49,29.15 62.08,62.08 0 0 1 105.25,19.46 H 73.800003 a 34.2,34.2 0 1 0 0.65,41.909994 H 41.91 A 27.18,27.18 0 0 1 69.110003,72.831206 H 108.81 a 56.74,56.74 0 0 1 0.39,6.64 62.08,62.08 0 0 1 -107.89,41.859994 69.57,69.57 0 0 0 55.31,27.46 h 102 c 52.84,0 95.66,-3.12 95.66,-7.15 0.03,-2.57 -20.92,-5.04 -51.51,-6.21 z"
     id="path1" />
  <g
     id="Fill-1-Copy-8"
     transform="translate(-122.75,-122.6688)">
    <path
       class="fill-color-2"
       d="m 690.64,141.08 h -12.83 v 24.85 h -11.12 a 3.34,3.34 0 0 0 -3.4,3.41 v 14.07 h 14.52 v 78.18 h 18.5 a 3.34,3.34 0 0 0 3.4,-3.4 v -74.67 h 16 v -14.07 a 3.34,3.34 0 0 0 -3.4,-3.4 h -12.6 v -15.89 a 9.1,9.1 0 0 0 -9.07,-9.08 z"
       id="path2" />
  </g>
  <g
     id="Fill-2-Copy-10"
     transform="translate(-122.75,-122.6688)">
    <path
       class="fill-color-2"
       d="m 723.32,261.7 h 18.49 a 3.34,3.34 0 0 0 3.41,-3.4 V 150.16 a 9.11,9.11 0 0 0 -9.08,-9.08 h -12.82 z"
       id="path3" />
  </g>
  <g
     id="Fill-3-Copy-8"
     transform="translate(-122.75,-122.6688)">
    <path
       class="fill-color-2"
       d="m 761.56,261.7 h 18.49 a 3.34,3.34 0 0 0 3.41,-3.4 v -83.17 a 9.11,9.11 0 0 0 -9.08,-9.08 h -12.82 z"
       id="path4" />
  </g>
  <path
     id="Fill-5-Copy-8"
     class="fill-color-2"
     d="m 649.81,0.03120528 a 13.23,13.23 0 0 0 -13.84,13.84000072 12.66,12.66 0 0 0 3.86,9.65 13.77,13.77 0 0 0 10,3.74 13.43,13.43 0 0 0 9.76,-3.74 12.84,12.84 0 0 0 3.86,-9.65 13.42,13.42 0 0 0 -3.86,-10.0000007 12.92,12.92 0 0 0 -9.76,-3.86000002" />
  <g
     id="Fill-7-Copy-8"
     transform="translate(-122.75,-122.6688)">
    <path
       class="fill-color-2"
       d="m 818.86,206.22 c 0,-7.38 2,-13.17 6,-17.36 4,-4.19 9.53,-6.25 16.46,-6.25 q 9.52,0 14.29,5.79 c 3.18,3.86 4.66,9.19 4.66,16 v 57.42 h 18.49 a 3.35,3.35 0 0 0 3.41,-3.41 v -56.73 c 0,-11.46 -3.07,-20.54 -9.31,-27.46 -6.24,-6.92 -15,-10.33 -26.32,-10.33 -7.27,0 -13.39,1.48 -18.5,4.31 a 27.5,27.5 0 0 0 -11,10.56 v -3.63 a 9.1,9.1 0 0 0 -9.08,-9.08 h -11.23 v 95.77 h 18.5 a 3.34,3.34 0 0 0 3.4,-3.41 v -52.19 z"
       id="path5" />
  </g>
  <g
     id="Combined-Shape-Copy-2"
     transform="translate(-122.75,-122.6688)">
    <path
       class="fill-color-2"
       d="m 532,179 a 40.22,40.22 0 1 0 3.52,39.26 h -43.46 a 25.62,25.62 0 0 1 25.65,-25.64 h 42.43 a 59.58,59.58 0 0 1 0.68,9.19 62.1,62.1 0 1 1 -4.31,-22.81 z"
       id="path6" />
  </g>
  <g
     id="Combined-Shape-Copy-3"
     transform="translate(-122.75,-122.6688)">
    <path
       class="fill-color-2"
       d="m 958,197.71 a 25.81,25.81 0 1 0 2.73,27.91 H 933.8 a 17.32,17.32 0 0 1 16.8,-17.36 h 34.49 a 43.22,43.22 0 0 1 0.34,5.45 47.65,47.65 0 1 1 -2.72,-16 z"
       id="path7" />
  </g>
  <path
     class="fill-color-2"
     d="M 541.1,91.831206 A 47.67,47.67 0 1 0 519.25,132.1412 v 6.89 h 12.82 a 9.1,9.1 0 0 0 9.08,-9.07 V 91.831206 Z M 493.33,118.1612 A 26.22,26.22 0 1 1 519.55,91.941206 26.23,26.23 0 0 1 493.33,118.1612 Z"
     id="path8" />
  <path
     class="fill-color-1"
     d="M 900.33,138.8112 V 18.331206 h 74.54 v 11.88 h -60.08 v 42 h 54.92 v 11.71 H 914.79 V 126.9212 h 60.08 v 11.88 z"
     id="path9" />
  <path
     class="fill-color-1"
     d="M 987.96,138.8112 V 53.411206 h 13.08 l 0.86,15.33 a 30.92,30.92 0 0 1 11.88,-12.74 33.47,33.47 0 0 1 17.56,-4.65 q 15.15,0 24.19,9.21 9.04,9.21 9,28.32 V 138.8112 h -14.46 V 90.431206 q 0,-26.68 -22,-26.68 a 23.79,23.79 0 0 0 -18.34,8 q -7.32,8 -7.31,22.809999 V 138.8112 Z"
     id="path10" />
  <path
     class="fill-color-1"
     d="m 1111.57,138.8112 q -11.71,0 -18.42,-5.68 -6.71,-5.68 -6.72,-20.49 V 65.641206 h -14.8 v -12.23 h 14.8 l 1.9,-20.48 h 12.56 v 20.48 h 25.14 v 12.23 h -25.14 V 112.6412 q 0,8.08 3.27,10.93 3.27,2.85 11.54,2.84 h 9 v 12.4 z"
     id="path11" />
  <path
     class="fill-color-1"
     d="m 1171.82,140.8712 a 41.81,41.81 0 0 1 -21.69,-5.59 39.75,39.75 0 0 1 -14.88,-15.58 q -5.43,-10 -5.42,-23.589995 0,-13.419999 5.33,-23.499999 a 38.94,38.94 0 0 1 14.9,-15.67 43.05,43.05 0 0 1 22.12,-5.59 q 12.39,0 21.43,5.59 a 37.94,37.94 0 0 1 13.86,14.72 41.47,41.47 0 0 1 4.78,19.67 c 0,1.27 0,2.53 -0.08,3.789999 -0.08,1.259995 -0.09,2.699995 -0.09,4.299995 h -68 q 0.51,9.81 4.56,16.27 a 26.85,26.85 0 0 0 23.15,13 q 9,0 15,-4.13 a 23.7,23.7 0 0 0 8.78,-11.19 h 14.29 a 38.52,38.52 0 0 1 -13.17,19.71 q -9.71,7.79 -24.87,7.79 z m 0,-77.299994 a 28.89,28.89 0 0 0 -18.33,6.29 q -8,6.28 -9.21,18.33 h 53.71 q -0.51,-11.54 -7.92,-18.07 -7.41,-6.53 -18.25,-6.55 z"
     id="path12" />
  <path
     class="fill-color-1"
     d="M 1222.78,138.8112 V 53.411206 h 13.09 l 1.2,16.36 a 31,31 0 0 1 12,-13.43 q 8.09,-5 20,-5 v 15.15 h -4 a 35.67,35.67 0 0 0 -13.94,2.67 21.14,21.14 0 0 0 -10.16,9 q -3.79,6.36 -3.79,17.559999 V 138.7212 Z"
     id="path13" />
  <path
     class="fill-color-1"
     d="M 1276.67,176.6812 V 53.411206 h 13.08 l 1.38,14.12 a 40.25,40.25 0 0 1 11.79,-11.2 q 7.66,-5 19.54,-5 12.74,0 22.21,5.85 a 40.12,40.12 0 0 1 14.72,16 49.56,49.56 0 0 1 5.25,23.069999 49,49 0 0 1 -5.25,22.999995 39.46,39.46 0 0 1 -14.81,15.84 q -9.55,5.76 -22.29,5.76 a 39.5,39.5 0 0 1 -18.68,-4.3 29.75,29.75 0 0 1 -12.48,-12.05 v 52.16 z m 44.07,-48.35 a 28.18,28.18 0 0 0 15.15,-4 28.55,28.55 0 0 0 10.36,-11.35 39.44,39.44 0 0 0 0,-33.739994 28.55,28.55 0 0 0 -10.33,-11.28 28.59,28.59 0 0 0 -40.67,11.28 39.44,39.44 0 0 0 0,33.739994 27.6,27.6 0 0 0 25.49,15.35 z"
     id="path14" />
  <path
     class="fill-color-1"
     d="M 1376.17,138.8112 V 53.411206 h 13.08 l 1.2,16.36 a 31,31 0 0 1 12,-13.43 q 8.1,-5 20,-5 v 15.15 h -4 a 35.67,35.67 0 0 0 -13.94,2.67 21.18,21.18 0 0 0 -10.16,9 q -3.78,6.36 -3.79,17.559999 V 138.7212 Z"
     id="path15" />
  <path
     class="fill-color-1"
     d="m 1438.84,34.481206 a 9.71,9.71 0 0 1 -10,-10 9.23,9.23 0 0 1 2.84,-6.89 10.55,10.55 0 0 1 14.21,0 9.08,9.08 0 0 1 2.92,6.89 9.56,9.56 0 0 1 -2.92,7.15 9.81,9.81 0 0 1 -7.05,2.85 z M 1431.61,138.8112 V 53.411206 h 14.46 V 138.8112 Z"
     id="path16" />
  <path
     class="fill-color-1"
     d="m 1495.31,140.8712 q -15.33,0 -25.48,-7.74 a 30.17,30.17 0 0 1 -11.88,-21 h 14.8 a 20.4,20.4 0 0 0 7.15,11.62 q 5.76,4.91 15.58,4.91 9.12,0 13.43,-3.87 a 12,12 0 0 0 4.3,-9.22 q 0,-7.74 -5.59,-10.32 a 73.84,73.84 0 0 0 -15.76,-4.65 89.14,89.14 0 0 1 -13.77,-4 31.14,31.14 0 0 1 -11.53,-7.319994 c -3.1,-3.15 -4.65,-7.32 -4.65,-12.48 a 23,23 0 0 1 8.35,-18.34 q 8.34,-7.14 22.64,-7.14 13.59,0 22.29,6.8 8.7,6.8 10.06,19.4 h -14.29 a 14.92,14.92 0 0 0 -5.59,-10.25 q -4.74,-3.69 -12.66,-3.7 -7.74,0 -12,3.27 a 10.36,10.36 0 0 0 -4.22,8.61 q 0,5.16 5.42,8.09 a 58.13,58.13 0 0 0 14.72,5 130,130 0 0 1 15.07,4.21 28.54,28.54 0 0 1 11.7,7.409994 q 4.56,4.9 4.57,14.2 a 23.34,23.34 0 0 1 -8.7,19 q -8.81,7.52 -23.96,7.51 z"
     id="path17" />
  <path
     class="fill-color-1"
     d="m 1578.46,140.8712 a 41.81,41.81 0 0 1 -21.69,-5.59 39.61,39.61 0 0 1 -14.89,-15.58 q -5.43,-10 -5.43,-23.589995 0,-13.419999 5.34,-23.499999 a 38.91,38.91 0 0 1 14.89,-15.67 43.09,43.09 0 0 1 22.13,-5.59 q 12.39,0 21.43,5.59 a 38.09,38.09 0 0 1 13.86,14.72 41.47,41.47 0 0 1 4.82,19.63 c 0,1.27 0,2.53 -0.09,3.789999 -0.09,1.259995 -0.08,2.699995 -0.08,4.299995 h -68 q 0.52,9.81 4.56,16.27 a 26.85,26.85 0 0 0 23.16,13 q 9,0 15,-4.13 a 23.7,23.7 0 0 0 8.78,-11.19 h 14.29 a 38.58,38.58 0 0 1 -13.17,19.71 q -9.76,7.83 -24.91,7.83 z m 0,-77.299994 a 28.85,28.85 0 0 0 -18.33,6.29 q -8,6.28 -9.22,18.33 h 53.72 q -0.51,-11.54 -7.92,-18.07 -7.41,-6.53 -18.25,-6.55 z"
     id="path18" />
</svg>
