<svg width="1619" height="177" viewBox="0 0 1619 177" fill="none" xmlns="http://www.w3.org/2000/svg">
<g clip-path="url(#clip0_13959_620472)">
<path d="M202.77 135.432C209.835 131.271 215.917 125.632 220.6 118.902H228.8C229.791 118.902 230.773 118.706 231.689 118.327C232.605 117.948 233.438 117.391 234.139 116.69C234.84 115.989 235.396 115.157 235.775 114.241C236.155 113.325 236.35 112.343 236.35 111.352C236.35 110.36 236.155 109.378 235.775 108.462C235.396 107.546 234.84 106.714 234.139 106.013C233.438 105.312 232.605 104.756 231.689 104.376C230.773 103.997 229.791 103.802 228.8 103.802H228.15C229.766 98.951 230.727 93.9066 231.01 88.8017H239.08C241.082 88.8017 243.003 88.0063 244.419 86.5904C245.835 85.1745 246.63 83.2541 246.63 81.2517C246.63 79.2493 245.835 77.329 244.419 75.9131C243.003 74.4972 241.082 73.7017 239.08 73.7017H230.75C230.218 68.5605 228.994 63.5148 227.11 58.7017H228.67C229.684 58.7386 230.695 58.5708 231.643 58.2083C232.59 57.8457 233.455 57.2959 234.185 56.5916C234.916 55.8874 235.497 55.0431 235.893 54.1093C236.29 53.1755 236.495 52.1713 236.495 51.1567C236.495 50.1421 236.29 49.1379 235.893 48.2041C235.497 47.2703 234.916 46.4261 234.185 45.7218C233.455 45.0175 232.59 44.4677 231.643 44.1052C230.695 43.7426 229.684 43.5748 228.67 43.6117H218.52C213.097 36.8417 206.225 31.3743 198.41 27.6118C190.594 23.8494 182.034 21.8879 173.36 21.8717H160.47C152.583 21.8582 144.782 23.5003 137.57 26.6917H151.1C165.676 26.5346 179.757 31.9777 190.437 41.8983C201.118 51.8189 207.584 65.4603 208.501 80.0085C209.418 94.5568 204.716 108.902 195.366 120.085C186.016 131.269 172.731 138.437 158.25 140.112C156.56 140.242 154.87 140.372 153.05 140.372H94.49C103.988 135.159 112.142 127.809 118.31 118.902C118.734 119.009 119.173 119.053 119.61 119.032H170.61C172.612 119.032 174.533 118.236 175.949 116.82C177.365 115.404 178.16 113.484 178.16 111.482C178.16 109.479 177.365 107.559 175.949 106.143C174.533 104.727 172.612 103.932 170.61 103.932H126.25C128.084 99.0858 129.391 94.057 130.15 88.9317H188.59C190.592 88.9317 192.513 88.1363 193.929 86.7204C195.345 85.3045 196.14 83.3841 196.14 81.3817C196.14 79.3793 195.345 77.459 193.929 76.0431C192.513 74.6272 190.592 73.8317 188.59 73.8317H130.8C130.389 68.7434 129.43 63.7142 127.94 58.8317H170.89C172.844 58.7606 174.693 57.9345 176.05 56.5273C177.407 55.1202 178.165 53.2415 178.165 51.2867C178.165 49.3319 177.407 47.4533 176.05 46.0461C174.693 44.6389 172.844 43.8129 170.89 43.7417H121.3C115.147 33.3333 106.392 24.7045 95.8952 18.7031C85.3985 12.7018 73.5212 9.53424 61.43 9.51172H56.49C45.4371 9.5427 34.5501 12.2022 24.7278 17.2707C14.9055 22.3392 6.42966 29.6713 0 38.6617C7.08442 30.4908 16.1805 24.3122 26.3872 20.738C36.594 17.1638 47.5574 16.3179 58.1917 18.2841C68.826 20.2503 78.7621 24.9604 87.0161 31.9479C95.2701 38.9354 101.556 47.9578 105.25 58.1217H73.8C69.3433 52.5549 63.258 48.5205 56.3953 46.5827C49.5327 44.645 42.2359 44.9008 35.5258 47.3146C28.8158 49.7283 23.028 54.1791 18.9722 60.0444C14.9164 65.9097 12.7955 72.896 12.906 80.0262C13.0166 87.1563 15.3532 94.0736 19.589 99.8103C23.8247 105.547 29.7477 109.816 36.5294 112.021C43.3111 114.225 50.6123 114.255 57.4115 112.105C64.2108 109.955 70.1681 105.734 74.45 100.032H41.91C41.9074 96.459 42.6091 92.9209 43.9751 89.6196C45.3411 86.3184 47.3446 83.3188 49.8708 80.7925C52.3971 78.2663 55.3967 76.2628 58.6979 74.8968C61.9991 73.5308 65.5373 72.8291 69.11 72.8317H108.81C109.07 75.0355 109.2 77.2527 109.2 79.4717C109.193 91.9826 105.405 104.199 98.3343 114.521C91.2635 124.842 81.2391 132.786 69.5754 137.311C57.9116 141.836 45.1526 142.732 32.971 139.881C20.7894 137.029 9.75348 130.564 1.31 121.332C7.79326 129.858 16.1576 136.772 25.7513 141.535C35.3451 146.298 45.909 148.781 56.62 148.792H158.62C211.46 148.792 254.28 145.672 254.28 141.642C254.31 139.072 233.36 136.602 202.77 135.432Z" fill="#6161D6"/>
<path fill-rule="evenodd" clip-rule="evenodd" d="M567.89 18.4102H555.06V43.2601H543.94C543.49 43.252 543.044 43.3347 542.627 43.5033C542.21 43.6719 541.831 43.9229 541.514 44.2413C541.196 44.5598 540.946 44.939 540.779 45.3564C540.612 45.7737 540.53 46.2206 540.54 46.6702V60.7402H555.06V138.92H573.56C574.009 138.928 574.454 138.846 574.87 138.678C575.287 138.51 575.665 138.26 575.982 137.942C576.299 137.625 576.55 137.247 576.718 136.831C576.886 136.415 576.968 135.969 576.96 135.52V60.8502H592.96V46.7802C592.968 46.3314 592.886 45.8857 592.718 45.4695C592.55 45.0533 592.299 44.6752 591.982 44.3579C591.665 44.0405 591.287 43.7904 590.87 43.6224C590.454 43.4544 590.009 43.372 589.56 43.3802H576.96V27.4902C576.955 25.0853 575.998 22.7804 574.298 21.079C572.599 19.3776 570.295 18.4181 567.89 18.4102Z" fill="#24275E"/>
<path fill-rule="evenodd" clip-rule="evenodd" d="M600.57 139.03H619.06C619.51 139.04 619.957 138.958 620.374 138.791C620.791 138.624 621.171 138.374 621.489 138.056C621.808 137.739 622.059 137.36 622.227 136.943C622.396 136.526 622.478 136.08 622.47 135.63V27.4902C622.462 25.0844 621.503 22.7795 619.802 21.0784C618.101 19.3773 615.796 18.4181 613.39 18.4102H600.57V139.03Z" fill="#24275E"/>
<path fill-rule="evenodd" clip-rule="evenodd" d="M638.809 139.033H657.299C657.748 139.042 658.195 138.961 658.612 138.794C659.03 138.626 659.409 138.376 659.727 138.059C660.046 137.741 660.297 137.363 660.465 136.946C660.634 136.529 660.717 136.082 660.709 135.633V52.4628C660.701 50.0571 659.742 47.7521 658.04 46.051C656.339 44.3499 654.034 43.3907 651.629 43.3828H638.809V139.033Z" fill="#24275E"/>
<path fill-rule="evenodd" clip-rule="evenodd" d="M649.812 0.031206C647.971 -0.0558083 646.133 0.242614 644.414 0.907354C642.696 1.57209 641.135 2.58849 639.832 3.89142C638.529 5.19436 637.513 6.7551 636.848 8.47364C636.183 10.1922 635.885 12.0306 635.972 13.8712C635.896 15.6613 636.2 17.4471 636.866 19.1106C637.531 20.7741 638.542 22.2774 639.832 23.5212C641.166 24.7789 642.737 25.7576 644.455 26.3998C646.172 27.0421 648 27.3349 649.832 27.2612C651.626 27.3218 653.414 27.022 655.091 26.3796C656.767 25.7373 658.298 24.7653 659.592 23.5212C660.872 22.2706 661.877 20.7661 662.542 19.1042C663.207 17.4424 663.517 15.6599 663.452 13.8712C663.53 12.0286 663.228 10.1896 662.564 8.46908C661.899 6.74854 660.888 5.18335 659.592 3.87121C658.326 2.58075 656.803 1.5704 655.121 0.905496C653.44 0.240589 651.638 -0.0640742 649.832 0.011206" fill="#24275E"/>
<path fill-rule="evenodd" clip-rule="evenodd" d="M696.11 83.5527C696.11 76.1727 698.11 70.3827 702.11 66.1927C706.11 62.0027 711.64 59.9427 718.57 59.9427C724.917 59.9427 729.68 61.8727 732.86 65.7327C736.04 69.5927 737.521 74.9227 737.521 81.7327V139.153H756.01C756.461 139.161 756.908 139.078 757.325 138.91C757.742 138.741 758.122 138.49 758.44 138.172C758.758 137.854 759.009 137.475 759.177 137.057C759.346 136.64 759.429 136.193 759.42 135.743V79.0126C759.42 67.5526 756.35 58.4727 750.11 51.5527C743.87 44.6327 735.11 41.2227 723.79 41.2227C716.52 41.2227 710.4 42.7027 705.29 45.5327C700.702 47.9454 696.888 51.6061 694.29 56.0927V52.4627C694.285 50.0561 693.327 47.7496 691.625 46.048C689.923 44.3463 687.617 43.3879 685.211 43.3827H673.98V139.153H692.48C692.93 139.161 693.377 139.078 693.794 138.91C694.21 138.741 694.589 138.49 694.906 138.171C695.224 137.853 695.474 137.474 695.641 137.056C695.809 136.639 695.89 136.192 695.88 135.743V83.5527H696.11Z" fill="#24275E"/>
<path fill-rule="evenodd" clip-rule="evenodd" d="M409.251 56.3293C404.218 48.997 396.897 43.5396 388.433 40.8106C379.969 38.0816 370.839 38.2349 362.471 41.2466C354.103 44.2583 346.969 49.9585 342.185 57.4556C337.402 64.9528 335.238 73.824 336.032 82.6818C336.826 91.5396 340.534 99.8844 346.575 106.411C352.616 112.938 360.65 117.278 369.42 118.753C378.19 120.228 387.202 118.755 395.046 114.564C402.889 110.373 409.123 103.7 412.771 95.5893H369.311C369.309 92.2206 369.97 88.8845 371.259 85.7718C372.547 82.6592 374.436 79.8312 376.819 77.4496C379.201 75.0681 382.03 73.1798 385.143 71.8928C388.256 70.6058 391.593 69.9453 394.961 69.9493H437.391C437.855 72.9905 438.082 76.063 438.071 79.1393C438.052 94.6001 432.266 109.498 421.845 120.918C411.423 132.339 397.117 139.462 381.722 140.894C366.328 142.326 350.953 137.964 338.605 128.661C326.256 119.358 317.822 105.783 314.951 90.5909C312.08 75.3989 314.98 59.6825 323.083 46.5151C331.186 33.3477 343.909 23.6764 358.764 19.3924C373.62 15.1085 389.539 16.5202 403.409 23.3512C417.279 30.1823 428.102 41.9415 433.761 56.3293H409.251Z" fill="#24275E"/>
<path fill-rule="evenodd" clip-rule="evenodd" d="M835.249 75.0425C831.782 70.6832 826.998 67.5623 821.612 66.1457C816.225 64.7292 810.525 65.0931 805.363 67.1831C800.2 69.2731 795.852 72.977 792.968 77.7418C790.084 82.5065 788.818 88.0764 789.36 93.6196C789.902 99.1628 792.223 104.382 795.976 108.497C799.729 112.613 804.712 115.404 810.182 116.454C815.652 117.504 821.314 116.757 826.324 114.323C831.334 111.89 835.423 107.901 837.979 102.953H811.049C811.036 98.4408 812.785 94.1022 815.923 90.86C819.06 87.6178 823.339 85.728 827.849 85.5925H862.339C862.567 87.4002 862.681 89.2205 862.679 91.0425C862.646 102.975 858.138 114.461 850.044 123.23C841.951 131.998 830.863 137.411 818.971 138.398C807.079 139.386 795.25 135.875 785.822 128.561C776.394 121.247 770.053 110.662 768.053 98.8977C766.053 87.1339 768.54 75.0479 775.021 65.0291C781.503 55.0103 791.508 47.788 803.058 44.7901C814.608 41.7922 826.862 43.2369 837.398 48.8386C847.934 54.4402 855.985 63.7911 859.959 75.0425H835.249Z" fill="#24275E"/>
<path fill-rule="evenodd" clip-rule="evenodd" d="M541.101 91.8307C541.048 81.2477 537.475 70.9831 530.945 62.6548C524.415 54.3265 515.299 48.4079 505.034 45.832C494.77 43.2561 483.939 44.1693 474.251 48.4277C464.562 52.6861 456.566 60.0475 451.523 69.3517C446.479 78.6558 444.676 89.3738 446.396 99.8162C448.116 110.259 453.262 119.832 461.023 127.027C468.784 134.222 478.719 138.63 489.261 139.556C499.804 140.482 510.355 137.873 519.251 132.141V139.031H532.071C534.476 139.025 536.781 138.069 538.482 136.369C540.184 134.669 541.143 132.366 541.151 129.961V91.8307H541.101ZM493.331 118.161C488.145 118.161 483.076 116.623 478.764 113.742C474.452 110.861 471.092 106.766 469.107 101.975C467.123 97.1836 466.603 91.9116 467.615 86.8255C468.627 81.7393 471.124 77.0673 474.791 73.4004C478.458 69.7335 483.13 67.2362 488.216 66.2245C493.302 65.2128 498.574 65.7321 503.365 67.7166C508.156 69.7011 512.251 73.0618 515.132 77.3737C518.013 81.6855 519.551 86.7549 519.551 91.9407C519.549 98.8939 516.785 105.562 511.869 110.478C506.952 115.395 500.284 118.158 493.331 118.161Z" fill="#24275E"/>
<path d="M900.328 138.812V18.332H974.868V30.212H914.788V72.212H969.708V83.922H914.788V126.922H974.868V138.802L900.328 138.812Z" fill="#6161D6"/>
<path d="M987.961 138.812V53.4119H1001.04L1001.9 68.7419C1004.56 63.4445 1008.68 59.0223 1013.78 56.0019C1019.09 52.8628 1025.17 51.2535 1031.34 51.3519C1041.44 51.3519 1049.5 54.4219 1055.53 60.5619C1061.56 66.7019 1064.56 76.1419 1064.53 88.8819V138.812H1050.07V90.4319C1050.07 72.6452 1042.74 63.7519 1028.07 63.7519C1024.62 63.6735 1021.19 64.3485 1018.02 65.73C1014.85 67.1116 1012.02 69.1665 1009.73 71.7519C1004.85 77.0852 1002.41 84.6886 1002.42 94.5619V138.812H987.961Z" fill="#6161D6"/>
<path d="M1111.57 138.81C1103.76 138.81 1097.62 136.916 1093.15 133.13C1088.68 129.343 1086.44 122.513 1086.43 112.64V65.6397H1071.63V53.4097H1086.43L1088.33 32.9297H1100.89V53.4097H1126.03V65.6397H1100.89V112.64C1100.89 118.026 1101.98 121.67 1104.16 123.57C1106.34 125.47 1110.19 126.416 1115.7 126.41H1124.7V138.81H1111.57Z" fill="#6161D6"/>
<path d="M1171.82 140.873C1164.21 141.017 1156.72 139.084 1150.13 135.283C1143.83 131.558 1138.68 126.167 1135.25 119.703C1131.63 113.036 1129.82 105.173 1129.83 96.1129C1129.83 87.1663 1131.6 79.3329 1135.16 72.6129C1138.55 66.0877 1143.71 60.6549 1150.06 56.9429C1156.79 53.1241 1164.44 51.193 1172.18 51.3529C1180.44 51.3529 1187.58 53.2163 1193.61 56.9429C1199.47 60.5056 1204.26 65.5929 1207.47 71.6629C1210.66 77.7241 1212.3 84.4821 1212.25 91.3329C1212.25 92.6029 1212.25 93.8629 1212.17 95.1229C1212.09 96.3829 1212.08 97.8229 1212.08 99.4229H1144.08C1144.42 105.963 1145.94 111.386 1148.64 115.693C1151.04 119.681 1154.44 122.976 1158.49 125.255C1162.55 127.534 1167.13 128.719 1171.79 128.693C1177.79 128.693 1182.79 127.316 1186.79 124.563C1190.79 121.82 1193.86 117.914 1195.57 113.373H1209.86C1207.65 121.164 1203.04 128.061 1196.69 133.083C1190.21 138.276 1181.92 140.873 1171.82 140.873ZM1171.82 63.5729C1165.17 63.4967 1158.69 65.7184 1153.49 69.8629C1148.15 74.0496 1145.08 80.1596 1144.28 88.1929H1197.99C1197.65 80.4996 1195.01 74.4763 1190.07 70.1229C1185.13 65.7696 1179.04 63.5863 1171.82 63.5729Z" fill="#6161D6"/>
<path d="M1222.78 138.81V53.4098H1235.87L1237.07 69.7698C1239.65 64.2043 1243.83 59.5303 1249.07 56.3398C1254.46 53.0065 1261.13 51.3398 1269.07 51.3398V66.4898H1265.07C1260.29 66.437 1255.55 67.345 1251.13 69.1598C1246.85 70.9615 1243.28 74.1246 1240.97 78.1598C1238.44 82.3998 1237.18 88.2532 1237.18 95.7198V138.72L1222.78 138.81Z" fill="#6161D6"/>
<path d="M1276.67 176.682V53.412H1289.75L1291.13 67.532C1294.26 63.0354 1298.27 59.2243 1302.92 56.332C1308.03 52.9987 1314.54 51.332 1322.46 51.332C1330.96 51.332 1338.36 53.282 1344.67 57.182C1350.96 61.0589 1356.05 66.5955 1359.39 73.182C1362.98 80.3354 1364.78 88.251 1364.64 96.252C1364.79 104.232 1362.99 112.127 1359.39 119.252C1356.03 125.811 1350.9 131.299 1344.58 135.092C1338.22 138.932 1330.79 140.852 1322.29 140.852C1315.81 140.974 1309.39 139.497 1303.61 136.552C1298.35 133.864 1294 129.669 1291.13 124.502V176.662L1276.67 176.682ZM1320.74 128.332C1326.07 128.458 1331.32 127.071 1335.89 124.332C1340.32 121.567 1343.9 117.641 1346.25 112.982C1348.75 107.708 1350.04 101.946 1350.04 96.112C1350.04 90.2776 1348.75 84.5158 1346.25 79.242C1343.9 74.6125 1340.33 70.7125 1335.92 67.962C1332.56 65.8539 1328.79 64.4697 1324.86 63.8977C1320.93 63.3256 1316.93 63.5782 1313.1 64.6394C1309.27 65.7006 1305.71 67.547 1302.64 70.0612C1299.57 72.5753 1297.05 75.702 1295.25 79.242C1292.76 84.5158 1291.46 90.2776 1291.46 96.112C1291.46 101.946 1292.76 107.708 1295.25 112.982C1297.59 117.708 1301.23 121.666 1305.75 124.386C1310.27 127.106 1315.47 128.476 1320.74 128.332Z" fill="#6161D6"/>
<path d="M1376.17 138.81V53.4098H1389.25L1390.45 69.7698C1393.03 64.2043 1397.21 59.5303 1402.45 56.3398C1407.85 53.0065 1414.52 51.3398 1422.45 51.3398V66.4898H1418.45C1413.67 66.437 1408.93 67.345 1404.51 69.1598C1400.23 70.9641 1396.66 74.1265 1394.35 78.1598C1391.83 82.3998 1390.57 88.2532 1390.56 95.7198V138.72L1376.17 138.81Z" fill="#6161D6"/>
<path d="M1438.84 34.481C1437.52 34.5212 1436.2 34.29 1434.97 33.8017C1433.74 33.3134 1432.62 32.5782 1431.68 31.6415C1430.74 30.7048 1430.01 29.5863 1429.52 28.3549C1429.03 27.1235 1428.8 25.8051 1428.84 24.481C1428.81 23.1983 1429.05 21.923 1429.53 20.7367C1430.02 19.5503 1430.75 18.479 1431.68 17.591C1433.62 15.8209 1436.16 14.8398 1438.79 14.8398C1441.41 14.8398 1443.95 15.8209 1445.89 17.591C1446.84 18.4661 1447.59 19.5332 1448.09 20.7212C1448.6 21.9093 1448.84 23.191 1448.81 24.481C1448.85 25.8104 1448.61 27.1329 1448.1 28.364C1447.6 29.5952 1446.85 30.7079 1445.89 31.631C1444.96 32.5514 1443.86 33.2775 1442.65 33.7669C1441.44 34.2563 1440.15 34.4991 1438.84 34.481ZM1431.61 138.811V53.411H1446.07V138.811H1431.61Z" fill="#6161D6"/>
<path d="M1495.31 140.87C1485.09 140.87 1476.6 138.29 1469.83 133.13C1466.51 130.636 1463.74 127.483 1461.7 123.87C1459.65 120.256 1458.38 116.26 1457.95 112.13H1472.75C1473.73 116.709 1476.25 120.812 1479.9 123.75C1483.74 127.024 1488.93 128.66 1495.48 128.66C1501.56 128.66 1506.04 127.37 1508.91 124.79C1510.26 123.662 1511.34 122.252 1512.08 120.659C1512.83 119.065 1513.21 117.328 1513.21 115.57C1513.21 110.41 1511.35 106.97 1507.62 105.25C1502.56 103.119 1497.27 101.559 1491.86 100.6C1487.17 99.6389 1482.56 98.3013 1478.09 96.6003C1473.75 95.0436 1469.81 92.5434 1466.56 89.2803C1463.46 86.1303 1461.91 81.9603 1461.91 76.8003C1461.82 73.3101 1462.52 69.8448 1463.97 66.6672C1465.42 63.4896 1467.57 60.683 1470.26 58.4603C1475.82 53.7003 1483.37 51.3203 1492.9 51.3203C1501.96 51.3203 1509.39 53.587 1515.19 58.1203C1520.99 62.6536 1524.34 69.1203 1525.25 77.5203H1510.96C1510.76 75.5238 1510.17 73.587 1509.21 71.8258C1508.25 70.0647 1506.94 68.5153 1505.37 67.2703C1502.21 64.8103 1497.99 63.577 1492.71 63.5703C1487.55 63.5703 1483.55 64.6603 1480.71 66.8403C1479.36 67.8292 1478.28 69.1286 1477.54 70.6277C1476.81 72.1268 1476.45 73.7813 1476.49 75.4503C1476.49 78.8903 1478.3 81.587 1481.91 83.5403C1486.57 85.8585 1491.52 87.5402 1496.63 88.5403C1501.73 89.6398 1506.76 91.0457 1511.7 92.7503C1516.15 94.2223 1520.17 96.7672 1523.4 100.16C1526.44 103.427 1527.96 108.16 1527.97 114.36C1528.1 117.986 1527.37 121.59 1525.86 124.888C1524.35 128.186 1522.1 131.087 1519.27 133.36C1513.4 138.374 1505.41 140.877 1495.31 140.87Z" fill="#6161D6"/>
<path d="M1578.46 140.873C1570.86 141.017 1563.36 139.084 1556.77 135.283C1550.46 131.566 1545.31 126.173 1541.88 119.703C1538.26 113.036 1536.45 105.173 1536.45 96.1129C1536.45 87.1663 1538.23 79.3329 1541.79 72.6129C1545.17 66.0881 1550.34 60.6551 1556.68 56.9429C1563.42 53.1242 1571.06 51.1931 1578.81 51.3529C1587.07 51.3529 1594.21 53.2163 1600.24 56.9429C1606.1 60.5115 1610.89 65.5973 1614.1 71.6629C1617.3 77.7086 1618.96 84.4522 1618.92 91.2929C1618.92 92.5629 1618.92 93.8229 1618.83 95.0829C1618.74 96.3429 1618.75 97.7829 1618.75 99.3829H1550.75C1551.1 105.923 1552.62 111.346 1555.31 115.653C1557.71 119.642 1561.11 122.938 1565.17 125.217C1569.23 127.496 1573.81 128.68 1578.47 128.653C1584.47 128.653 1589.47 127.276 1593.47 124.523C1597.47 121.78 1600.54 117.874 1602.25 113.333H1616.54C1614.33 121.122 1609.72 128.018 1603.37 133.043C1596.86 138.263 1588.56 140.873 1578.46 140.873ZM1578.46 63.5729C1571.81 63.4934 1565.33 65.7155 1560.13 69.8629C1554.8 74.0496 1551.72 80.1596 1550.91 88.1929H1604.63C1604.29 80.4996 1601.65 74.4763 1596.71 70.1229C1591.77 65.7696 1585.69 63.5863 1578.46 63.5729Z" fill="#6161D6"/>
</g>
<defs>
<clipPath id="clip0_13959_620472">
<rect width="1619" height="177" fill="white"/>
</clipPath>
</defs>
</svg>
